# xmcd CD database file
#
# Track frame offsets:
#	150
#	19667
#	43610
#	61610
#	90110
#	113960
#	129185
#
# Disc length: 1922 seconds
#
# Revision: 1
# Processed by: cddbd v1.5.2PL0 Copyright (c) Steve Scherf et al.
# Submitted via: CDex 1.82
#
DISCID=45078007
DTITLE=Deep Talk - drawing lines
DYEAR=2017
DGENRE=Jazz
TTITLE0=Reflecting
TTITLE1=Maybe Now
TTITLE2=Birds
TTITLE3=Time Remembered
TTITLE4=Ode To Oregon
TTITLE5=Alfonsina Y El Mar
TTITLE6=I Can't Help It
EXTD=YEAR: 2017
EXTT0=
EXTT1=
EXTT2=
EXTT3=
EXTT4=
EXTT5=
EXTT6=
PLAYORDER=
